<svg xmlns="http://www.w3.org/2000/svg" fill="#148eff" viewBox="0 0 128 64" part="icon blz-icon"><path fill-rule="evenodd" d="M105.3 2.07c.96.15 1.65-.21 2.4 0 .25.07.31.39.6.5.48.14.81-.12 1.35 0 .15.14.26.36.44.48.41.28 1.29.41 1.9.74.4.21.72.66 1.05.74.44.11.88-.13 1.29 0 .34.11.42.59.73.74.45.08.95-.1 1.3 0 .33.1.3.35.55.5h1.78c.28.02.23.38.43.49.64.15 1.31-.2 1.96 0 .3.09.9.96 1.17 1.23.44.41 1 .69 1.3 1.1.31.46.5 1.17.73 1.72.38.9.58 1.75 1.1 2.4.05.75-.02 1.49-.05 2.27-.04.7-.13 1.55-.06 2.2.06.66.52 1.36.6 1.8.22 1.03.08 2.33.13 3.5.04 1.05.17 2.17-.06 3-.14.48-.7 1.03-.8 1.6-.11.63.13 1.35.12 1.96-.01 1.52-.65 2.25-1.41 3.2-.13.7-.09 1.48-.25 2.2-.12.54-.35 1.01-.36 1.6-.02.64.08 1.36.12 2.03.1 1.84.25 4.02.11 6.02-.05.82-.42 1.58-.49 2.34-.1 1.27.11 2.36-.13 3.5-.1.54-.33 1.06-.43 1.6-.1.56-.17 1.12-.3 1.65-.28 1.05-.81 1.86-1.3 2.7-.36.03-.5.55-.85.8-.54.36-1.73.56-2.59.8-.41.1-.86.23-1.29.36-.45.15-.92.44-1.23.44-.47 0-.86-.46-1.23-.56-.8.65-2.55.89-3.81.67-.04-.27.26-.52.43-.73a5.1 5.1 0 0 0 .5-5.47c.65-.45 1.66-.55 2.08-1.24.01-.32-.46-.15-.5-.43-.27-.82-.65-1.7-1.04-2.58-.12-.27-.33-.56-.36-.8-.07-.48.12-1.46.18-2.09.2-1.95.45-4.16.69-6.14-.46-.7-.9-1.46-1.24-2.28-.32-.78-.75-1.7-.86-2.64-.04-.42.15-.9.06-1.35-.05-.29-.41-.56-.49-.86-.1-.42-.04-1.09-.06-1.65-.03-.9-.1-1.66 0-2.53.05-.24-.3-.32-.36-.55-.19-.68.25-1.94.18-2.95-.04-.66-.35-1.27-.43-1.84-.17-1.33 0-3.1 0-4.55v-2.27c0-.77-.13-1.73 0-2.21.09-.29.3-.26.43-.55.2-1.28-.27-2.31 0-3.32.07-.27.42-.41.5-.67.09-.31.12-1.86 0-2.28-.08-.3-.64-.8-.99-1.1-1.11-1.03-2.22-2.01-3.2-3.07a.23.23 0 0 1-.04-.17m8.78 13.33c-.29.96-.04 1.84 0 2.76.04.97.02 2.12.06 3.19.05 1.14-.1 2.31.06 3.2.05.3.29.6.36.91.2.83.27 1.77.56 2.4.1.24.28.37.36.6.03 7.2-.1 14.2-.06 21.39a7.85 7.85 0 0 0 1.97-3.56c.14-.56.08-1.09.19-1.72.19-1.04 1.06-1.97 1.23-3.01.14-.88 0-1.96 0-2.95 0-2.03.07-3.81.19-5.72.06-.96-.01-2 .24-2.76.15-.42.62-.72.8-1.17.22-.53.21-1.38.44-2.03.17-.5.54-.87.6-1.23.11-.53 0-1.36 0-2.09 0-.7.12-1.58 0-2.09-.04-.23-.26-.37-.36-.61-.31-.72-.36-1.88-.6-2.4-.48-.96-1.8-1.1-1.73-2.33-.76.13-.99-.75-1.6-.92-.78-.22-1.57.04-2.64-.06-.08.03-.08.11-.07.2" clip-rule="evenodd"></path><path fill-rule="evenodd" d="M100.81 23.57c.05.5.15 1.14-.19 1.4 1.2-.26 1.82-.05 2.59.69.14.13.29.4.49.6.23.25.47.32.55.5.14.3.04.75.12.99.18.29.66.29.92.49.15.67.23 1.41.43 2.15.05.2.2.4.25.61.26 1.26-.01 2.68.18 3.93.09.61.4 1.13.43 1.72.16.32.5-.18.61.12.4 2.18 1.16 4.78.55 7.07.05.28.52.14.61.36.28.47.46 1.03.62 1.6-.03.21-.23.45-.25.67-.03.3.15.67.19 1.04.03.45-.01.97-.06 1.41-.05.49-.21.96-.19 1.3.03.27.22.54.25.8.05.55-.25 1.17-.37 1.84-.34 1.8-.62 3.7-1.04 5.4-.7-.32-1.34-.37-1.9-.68-.55-.3-1.04-.91-1.54-1.35-.97-.85-1.75-1.57-3.75-1.48-.08-.84.31-1.68.61-2.51.28-.79.57-1.58.8-2.46.42-1.65.44-4.06.3-6.14-.08-1.28-.38-2.73-.67-4-.3-1.3-.63-2.62-1.18-3.5-.16-.26-.34-.5-.67-.6 0-1.25.62-2.26.43-3.38-.05-.32-.35-.8-.55-1.17-.56-1-1.34-2.27-2.15-2.95.1.87-.17 1.41-.5 2.1-.17.35-.43.78-.49 1.1-.14.83.15 1.96.25 3 .18 1.98.38 3.87.6 5.9.12 1 .43 2.1.32 2.89-.05.28-.27.47-.31.74.11.4.37.57.43 1.1.1.98.14 2.46-.06 3.5-.06.33-.28.65-.3.99-.06.74.21 1.6.3 2.4.05.38.09.82.12 1.22.08.85.2 1.6-.43 1.9.25 1.61-.21 3.03-.43 4.36-.35-.35-.37-.88-.56-1.29a13.15 13.15 0 0 0-4.05-5.03c-.69-.51-1.54-.85-2.03-1.6.55-1.77 1.06-4.03 1.84-5.72.17-.34.49-.63.56-.98.16-.78-.07-1.67-.56-2.1v-6.2c0-2.13.17-4.25 0-6.2-.03-.45-.22-.87-.3-1.35-.09-.5-.03-1.07-.12-1.53-.08-.4-.42-.77-.5-1.18-.08-.43.05-.9 0-1.35-.04-.56-.28-1.1-.36-1.65-.05-.34 0-.68-.06-.99-.07-.32-.25-.6-.3-.92-.05-.28-.04-.57-.06-.86-.03-.26-.1-.54-.13-.8-.07-.65.15-1.37 0-2.03-.08-.38-.56-.58-.5-1.1-.06-.22-.34-.22-.43-.43a33 33 0 0 1 0-4.3c1.46-1.19 3.15-2.14 4.24-3.68-.32-.25-.86-.28-1.29-.43-.24.04-.36.29-.61.37-.27.08-.52.08-.86 0C90.12 5.94 88.5 5.1 87.08 4c-.27-.02-.6-.1-.91-.17-.22-.06-.72-.01-.67-.37 0-.32.56-.18.85-.19.51 0 1-.02 1.48-.06 1.34-.09 2.9.1 4.05-.06.45-.06.81-.36 1.24-.36.46 0 .73.25.98.5.65.08 1.43-.12 2.15 0 .6.08 1.28.4 1.9.6s1.23.53 1.85.61c.46.07.93-.04 1.35.06 1.36.34 1.93 1.55 3 2.03.46 1.2 1.15 2.43 1.73 3.63.41.87.67 1.41.61 2.83-.02.4 0 .9-.06 1.23-.08.45-.42.78-.5 1.23-.1.67.08 1.29 0 1.97a10.7 10.7 0 0 1-1.34 3.5c-.88 1.48-2 2.46-3.98 2.58ZM96.4 9.38c.06 4.1-.09 8.46 0 12.47 0 .21-.11.57.11.74a2.6 2.6 0 0 0 1.48-.12c1.4-.52 1.57-1.74 2.1-3.2.1-.3.32-.6.37-.85.06-.44-.06-.88.06-1.3.07-.28.37-.61.43-.92.13-.7.08-1.84-.19-2.58-.29-.78-1.21-1.85-1.78-2.51-.72-.85-1.59-1.85-2.46-1.9-.08.01-.12.06-.12.17M26.42 3.42c.36.33.58.81 1.04 1.04.27-.01.48-.1.8-.06.72.81 1.42 1.66 2.22 2.4V9c0 .74.14 1.62 0 2.16-.09.3-.48.47-.5.74-.03.6.74.76.93 1.1-.1.62.15 1.43 0 1.97-.1.33-.36.32-.42.61v7.13c0 .77-.2 1.75 0 2.34.1.35.72.58.85.85.14.27.22 1.02.25 1.54.14 2.33-.02 4.76-.12 7-.04.54-.04 1.12-.14 1.42-.09.25-.38.42-.44.61-.27.95.2 2.2 0 3.08.03.28.4.22.44.49.12.77.07 1.86 0 2.64-.18.27-.44.24-.61.5-.08.1-.26.49-.25.66.02.45.61.64.42 1.48-.06.26-.16.32-.42.61-.14.59.17 1.26 0 1.9-.06.24-.42.44-.5.69-.21.73.22 1.97 0 2.82-.06.28-.4.44-.42.8-.03.45.62.86.43 1.48.55.03 1.11.1 1.72.12.53.02 1.24.13 1.72-.06.29-.11.34-.42.55-.61.23-.2.71-.51.98-.55.45-.07 1.1.15 1.66.3 1.12.3 2.89.66 4.05 0 .28-.16.32-.4.67-.55.65-.26 1.87-.26 2.83-.3 4.02-.18 8.72.01 12.85.05v2.9c0 .93-.15 2 0 2.82.15.83.84 1.4 1.04 2.03h-4.67c-.54 0-1.2.1-1.54 0-.28-.08-.32-.36-.55-.5-.88.05-1.57.07-1.84-.48-.73.12-.9-.3-1.3-.5h-2.27c-1.37 0-2.61.22-3-.6-3.76-.1-7.6-.13-11.43-.14a3.52 3.52 0 0 0-2.95-.74c-.37.08-.8.49-1.23.8-.43.3-.87.6-1.17.86-.3.27-.5.67-.74.86-1.22-.21-3.1-.54-4.18 0-.33-.12-.36-.53-.73-.61.15-.4.52-.58.55-1.1a10.2 10.2 0 0 0 2.89-2.04c.1-.6-.14-1.4 0-1.9.1-.37.4-.37.49-.68 0-.39-.43-.35-.5-.67.2-1.3-.27-2.42 0-3.44.08-.26.42-.43.5-.67.13-.47-.13-.92 0-1.35.08-.27.33-.3.43-.55.14-1-.52-1.2-.92-1.66v-6.08c.09-.24.42-.23.49-.5-.07-.86-.32-2.34 0-3.19.1-.3.31-.37.43-.61v-2.34c0-.75-.15-1.66 0-2.33.12-.51.62-.78.61-1.3 0-.52-.41-.8-.6-1.1v-4.98c0-.58.1-1.26 0-1.65-.08-.3-.3-.37-.44-.62v-1.79c0-.6-.14-1.35 0-1.78.15-.5.77-.55.92-.99-.06-1.15.5-3.32-.56-3.62.32-.61.8-1.31.86-2.15.1-1.07-.5-2.1-.86-2.89-.37-.14-.89-.1-1.22-.13-.31-.76-.8-1.29-1.48-1.84-.2-.16-.9-.64-.91-.74-.03-.15.49-.52.55-.92 0-.08-.03-.18.06-.18h.68c.29.03.22.43.49.49h3.5Z" clip-rule="evenodd"></path><path fill-rule="evenodd" d="M83.86 60c-.08-1.1.1-1.96 0-2.83-.1-.76-.46-1.5-.68-2.2l-.37-1.11c-.1-.35-.26-.77-.3-1.1-.07-.46.11-1.08 0-1.6-.2-.87-1.63-1.6-2.03-2.53-.11-.24-.3-.74-.25-1.1s.82-1.2 1.04-1.54c.73-1.12 1.21-2 1.6-3.44.18-.65.44-1.6.3-2.2-.1-.46-.8-.86-1.28-1.17-1.1-.71-2.06-1.16-3.14-1.78-.5-.3-1.02-.8-1.78-.68.4.88.4 2.17.36 3.5.22.2.53.38.8.6.26.23.5.43.8.62-.14.64-.64.92-.8 1.54-1.3.02-2.52-.22-3.69-.06-.84.12-1.67.58-2.45.86-.86.3-1.67.56-2.45.85-.56-.29-.4-1.29-.86-1.65.24-.35.46-.77.8-1.17.3-.34.79-.58.92-.98.13-.38.03-.77.12-1.1.26-.89.88-1.16 1.66-1.66 0-.33-.59-.33-.44-.61-.08-.85.37-1.72.37-2.65 0-.62-.28-1.13-.19-1.65.08-.41.4-.67.67-.92.1-.61-.13-1.28 0-1.78.1-.35.48-.41.5-.74-.18-.3-.41-.3-.5-.61-.1-.44.12-.9.12-1.24 0-.82-.24-1.47.06-2.14.18-.4.54-.71.74-1.1.4-.8.46-1.61.55-2.65.16-.24.46-.46.55-.67.32-.72.23-1.96.44-3 .18-.95.52-1.83.92-2.52.2-.36.56-.66.6-.92.08-.45-.19-.8-.12-1.16.07-.34.36-.54.61-.74.38-1.1.65-2.14 1.23-3.14.17-.29.54-.52.61-.8.16-.56-.14-1.13 0-1.71.09-.25.56-.89.78-1.07.24-.2.58-.21.74-.44.17-1-.08-3.4 1.6-2.64.83.38.73 1.57.98 2.52.13.55.48 1.08.74 1.53.28.51.82.98.92 1.35.12.5-.05 1.08 0 1.6.13 1.76 1.1 3.6 1.65 5.29.3.93.46 1.89.67 2.76.11.44.26.88.37 1.35.1.46.13 1.02.3 1.4.12.29.46.46.56.69.08.63-.11 1.2 0 1.71.06.28.42.5.49.8.04.2-.12.48-.06.68.08.28.42.38.5.61-.08.67.09 1.56 0 2.34-.03.18-.12.38-.13.55-.07 1.19.25 2.64.44 3.8.11.77.26 1.5.3 2.52.11 2.5.1 5.57 0 7.8-.02.5 0 1.24-.13 1.65-.1.39-.43.85-.6 1.35-.5 1.35-.87 3.01-1.73 4.06-.12.89.16 1.64 0 2.4-.06.28-.33.54-.43.79-.34.87-.37 1.9-.92 2.58-.1.47.13.95 0 1.41-.06.22-.37.4-.43.61-.18.6.16 1.28 0 1.85-.08.3-.44.52-.68.67-.38.1-.58-.05-.97.16m-3.69-36.36c-.48.51-.57 1.4-1.04 1.78-.08.06-.33.08-.31.3-.13.53-.04 1.04-.12 1.6-.07.47-.3.91-.36 1.35-.2 1.39.27 2.68 0 4.12 1.67-.14 2.59.2 3.5.74.56.33 1.12.8 1.9.86.07-1.78.14-3.92.06-5.78-.02-.33.05-.72 0-1.04-.03-.17-.19-.43-.25-.67-.27-1.1-.13-2.58-.8-3.01-.57-.37-1.18-.22-1.6-.55-.48-.4-.49-.84-.91-1.54.02.66-.12 1.15-.07 1.84" clip-rule="evenodd"></path><path fill-rule="evenodd" d="M77.1 4.16c.11.47-.23.8-.37 1.16-.45 1.08-.77 2.1-1.54 2.89.08.85.1 1.6-.3 2.28-.28.45-.95.76-1.05 1.17-.08.36.1.76.06 1.1-.08.72-.53.84-.98 1.35-.22 1.31-.28 2.83-.74 4.06-.17.46-.5.83-.56 1.4-.02.26.06.49.06.74.01.79-.08 1.61-.11 2.4-.03.62.11 1.32-.06 1.9-.07.21-.28.35-.37.55-.27.6-.35 1.42-.55 2.1a4.6 4.6 0 0 1-.86 1.78v1.6c-.3.76-1.19 1.1-1.35 1.9-.16.76 0 1.74 0 2.58s.11 1.75 0 2.58c-.08.64-.46 1.31-.68 1.96-.24.71-.6 1.43-.68 1.97-.12.8.07 1.59 0 2.27-.14 1.58-.93 2.63-1.66 3.88.03 1.17-.66 1.95-.73 2.83.4.35.37-.4.73-.44.68.53 1.65 0 2.59.06.33-.5.18-1.09.49-1.54.48-.7 1.51-.78 2.34-1.1.4-.16.86-.54 1.4-.8 1.23-.57 2.38-.92 2.83-2.22.4.16.37.51.74.62.6.17 1.52-.2 2.1 0 .26.08.85.86.85 1.29 0 .3-.36.63-.43.98a2.9 2.9 0 0 0 0 .86c.06.35.35.57.43.99.11.59 0 1.36 0 2.14 0 .77.14 1.6 0 2.1-.08.3-.64.57-.5.98h-6.75c-.28-.05-.2-.44-.49-.5-.76 0-1.42-.35-2.03-.24-.56.1-1.1.98-1.71 1.1-1.43.18-2.67-.08-3.94.12-.91.16-1.73.94-2.7.86-.48-.44-.47-.95-.43-1.96.02-.6-.1-1.33 0-1.72s.55-.57.61-.86c.1-.49-.12-.91-.19-1.17.2-.4.8-.46.99-.98.15-.43.06-.93-.06-1.48.17-.31.53-.38.61-.74.09-.39-.15-.78-.12-1.16.04-.4.32-.7.44-1.05.12-.41.17-.94.18-1.42 0-.6.01-1.37-.18-2.09-.09-.3-.39-.57-.5-.85-.46-1.15-.42-2.6-.36-3.8.07-1.38.06-2.7.36-3.88.16-.6.45-1.24.67-1.85.66-1.71 1.44-3.6 2.03-5.34-.02-.35-.39-.38-.43-.86-.04-.49.43-.82.61-1.35.17-.47.05-.97.12-1.35.09-.44.44-.9.68-1.35.27-.53.6-1.05.67-1.71.06-.46-.07-.96 0-1.48.08-.55.44-1.12.67-1.66.6-1.3 1.15-2.59 2.03-3.74.2-.27.44-.41.5-.62.12-.47-.08-.93 0-1.29.08-.37.33-.36.43-.74-.63-.64-1.73.03-2.52-.24-.39-.14-.45-.63-.73-.74-.36-.15-.81-.05-1.1 0-.32.06-.78.13-1 .24-.72.4-1.14 2.34-1.34 3.39-.25 1.26-.36 3.08-1.17 3.5-.6.3-1.13-.13-1.29.67-.36-.18-.57-.5-.86-.74.08-.36.23-.58.25-.99.02-.5-.28-1-.25-1.42.04-.41.57-.72.68-1.1.14-.5 0-1.33 0-2.1v-6.2c.04-.05.11-.09.19-.12h15.36c.23.1.3.36.43.55.14-.04.46-.09.54.09m-45.03 0c2.61.3 6.07.39 8.66 0 .46.4.94.78.8 1.78-.94.3-2.57 1.14-2.46 2.4.05.45.52.73.5 1.29-.03.58-.56.7-.68 1.17-.15.52.02 1.62.06 2.51.12 2.8.23 5.95.06 8.86-.03.51-.16 1.02-.12 1.4.01.18.14.38.18.56.18.78.34 1.54.5 2.33-.37.41-.78.59-.86 1.24-.1.67.1 2.47.19 3.32.03.33.01.65.06.91.03.23.16.41.18.62.06.45.06 1.26-.06 1.6-.13.37-.77.7-.86 1.1-.08.37.12.97.25 1.53.11.52.11 1.07.19 1.54.05.33.2.62.3.92.1.28.33.6.37.86.07.42-.09 1.1-.13 1.65-.04.54.04 1.18-.12 1.6-.1.29-.63.59-.67.93-.07.45.3 1.66.5 1.96.28.47.95.66 1.47.98.6.38 1.06.73 1.41.99.1.54.13 1.14.25 1.66-.58-.22-1.7-.43-2.21 0-.85-.34-2-.28-3.25-.2-.73.06-1.47.06-1.97.26-.48.18-.81.83-1.17.85-.52.05-.81-.6-1.04-.8.68-.81 1.2-1.79 2.2-2.27.27-1.2.26-2.95.31-4.6.02-.55-.04-1.17.06-1.54.09-.32.4-.44.43-.74.06-.47-.33-.77-.43-1.3a4.1 4.1 0 0 1 .12-1.59c.09-.29.37-.54.43-.86.14-.7 0-1.85 0-2.95 0-4.62-.12-9.52-.12-13.94 0-.78-.15-1.74 0-2.28.09-.29.14-.26.44-.5-.01-.25-.38-.15-.44-.36-.17-2.57-.35-5.87-.49-8.72-.02-.43-.02-.9-.13-1.17-.3-.84-1.58-.44-1.9-1.3-.24.01-.45 0-.61-.05-.24-.3-.52-.55-.8-.8.15-.32.37-.59.6-.85m11.91-.06c4.54-.19 9.16.06 13.76 0 .13.76-.16 1.74 0 2.58.06.3.38.6.44.86.13.6 0 1.44 0 2.15v6.27c-.12.25-.37.39-.5.74-.23.64-.13 1.52.06 2.14-1.5 1.39-1.81 3.96-2.88 5.78v2.09c-1.34.61-2.98 1.44-2.28 3.8-.1.27-.46.35-.68.56-.74.73-1.42 2.28-1.9 3.38-.27.58-.5 1.26-.74 1.9-.25.67-.6 1.34-.67 1.96-.05.37.07.8 0 1.17-.08.46-.49 1.19-.67 1.71-.53 1.49-1.01 2.96-1.66 4.37-.11.24-.32.53-.25.8.54.46 1.13 0 1.6-.25.45-.24 1-.64 1.42-.74.4-.08.75-.04 1.1-.12.32-.07.65-.1.92-.3.4-.28.6-.85.92-1.35.7-1.09 1.53-2.32 3.07-2.58.17-.85.46-1.58.99-2.1.21.12.21.45.43.56 1.03-.27.96-1.62 1.54-2.34h1.35c-.14.94-.03 2.15.25 2.89-.14.25-.44.2-.61.43-.07.1-.14.4-.25.61-.15.3-.33.48-.37.8-.23 1.81.15 4.74.12 6.64-.9.07-1.48.48-1.97.98h-5.04c-.3-.04-.24-.46-.49-.55-.39.14-.57-.02-.86.06-.6.17-.74.9-1.23.99-.65.09-1.2-.46-1.78-.74h-3.38c-.25-.27-.61-.5-.61-.86 0-.44.44-.63.68-.92.16-1-.23-1.94 0-2.76.06-.26.39-.43.43-.67.1-.66-.6-1.57-.99-1.9.2-.32.44-.57.44-.99 0-.36-.3-.67-.38-.98-.2-.99.09-2.1.25-3.01.1-.59.14-1.25.25-1.66.06-.25.28-.49.36-.74.22-.68.15-1.43.37-2.03.39-1.08 1.26-1.78 1.78-2.58a7.15 7.15 0 0 1 1.96-3.87c.24-1.4.64-3.05 1.1-4.43.36-1.05.76-1.6 1.66-2.09.34-1.09 1.18-1.69 1.85-2.45-.24-.98-.41-2.06 0-2.83.17-.32.5-.46.74-.74.84-1.02 1.52-2.44 2.45-3.2v-3c-.92.03-1.8-.03-2.7-.06-.67-.03-1.54-.14-2.15 0-.26.05-.93.44-1.23.61a2.9 2.9 0 0 0-1.6 2.95c-.9.06-1.46.47-1.84 1.04-.16 1.35.21 2.75 0 3.94-.06.35-.33.68-.5.98-.19.32-.36.67-.6.86-.35-.24-.7-.75-.5-1.35-.08-.3-.38-.36-.5-.61-.1-.78-.23-1.85-.43-2.34.22-.85.66-2.1.31-3-.18-.47-.5-.6-.8-.93.18-1.35-.24-2.9 0-4.11.1-.5.6-.81.5-1.3q.03-.105-.06-.12M16.59 22.04c.3.41.61.56 1.1.74.39.13 1.2.15 1.41.43.65.83-.74 1.73-.3 2.34.21.3.22-.05.5.06.53.44.78 1.18 1.34 1.6-.29 1.5-.78 3.88-.06 5.28.27.51.75.62.99 1.1-.67 2.63.74 6.39-.19 8.6-.13.3-.5.6-.55.91-.06.39.12.99.19 1.41a5.86 5.86 0 0 1-.12 2.95c-.15.45-.3.98-.5 1.35-.42.84-1.08 1.5-1.4 2.4-.37.97-.44 1.96-.62 3.2-1.29.54-2.52 1.26-3.63 2.08-.62.47-1.2.86-1.53 1.6-1.26.22-2.69.27-3.5.92-.47.03-.56-.65-1.05-.68-.46-.03-.69.64-1.1.8-.35.12-.91.11-1.3.11-.86 0-1.8-.15-2.63-.3-.48.3-1.12-.03-1.79 0-.04 0-.27-.03-.37 0-.09.02-.19.18-.19.19-.25-.05-.8-.78-.92-.86.57-.27 1.22-.46 1.66-.86.28-1.37.84-2.62.99-4 .05-.55-.03-1.14 0-1.72.05-1.21.17-2.48.18-3.68.01-2.18-.42-4.35-.55-6.58-.16-2.9.23-5.8.12-8.78.1-.27.55-.18.68-.44-.09-.77.08-1.5-.06-2.27-.05-.29-.32-.51-.37-.8-.14-.66.02-1.64.05-2.46.02-.35-.05-.74 0-1.04.06-.35.41-.65.5-1.04.2-.94-.07-1.68-.55-2.34v-8.6c0-.92-.2-2.09 0-2.83.09-.33.31-.32.49-.6-.14-.52.08-.92-.12-1.17-.3-.35-.51.04-1.05-.11-.2-.11-.09-.33-.2-.5-.33-.55-1.13-.94-1.59-1.47-.21-.24-.31-.51-.55-.73.14-.38-.03-.8.06-1.1.1-.35.43-.52.55-.75.66-.07 1.47.1 2.21 0 .44-.06.85-.23 1.3-.3 2.6-.43 5.8-.15 8.71-.38 1.06-.07 2.07-.08 3.08.13.25.12.22.41.37.61.24.33.67.53.98.8 1.6-.1 2.3 1.03 2.89 2.1.4.72.84 1.72.92 2.7.06.62.03 1.35.11 2.08.1.92.31 1.8.06 2.58-.1.33-.34.63-.55.99-1.18 2.1-2.5 4.9-4.1 6.33m-5.6-11.19c-.07.24-.38.23-.42.5v8.53c.33-.14.75-.02 1.04.06.53-.36.59-1.08.92-1.6.43-.67 1.1-1.03 2.09-1.16.04-1.37-.18-3 .43-3.8-.2-.5-.44-.96-.43-1.66.16-.25.5-.33.68-.55-.55-.2-.75.02-1.23-.2-.4-.16-.55-.76-.86-.85-.66-.2-1.34.4-2.1.19.02-.09.28-.32 0-.3-.04.26-.14.5-.12.84m-.42 19.17c-.05.2-.2.32-.25.5-.26 1.02.27 1.95.25 2.88-.03.74-.45 1.47-.44 2.21-.31.12-.5.3-.49.61.02.34.36.38.5.62v8.41a1.8 1.8 0 0 0-.62 1.24c-.1.88-.05 2.44 0 3.62.04.7.04 1.3.18 1.72-.28.5-.55 1-.8 1.54 1.39.07 1.55-1.08 2.64-1.3.6-.48 1.1-1.13 1.6-1.65.17-.18.44-.38.55-.55.56-.92.14-2.36.44-3.69.6-1.14.83-2.65.98-4.24.01-.27-.32-.21-.36-.43.6-.33.25-.99.06-1.54-.17-.5-.46-1.03-.31-1.72.04-.2.4-.44.5-.8.2-.95-.43-1.2-.62-1.73-.4-1.11.26-1.9.37-2.94-.03-.23-.27-.23-.3-.44.56-.67-.27-1.59-.43-1.9.12-.03.4.08.42-.06-.18-.19-.3-.43-.36-.74-.01-.25.24-.25.18-.55-.31-.66-.89-1.03-1.4-1.41a20.4 20.4 0 0 1-2.28-2.03c-.07 1.54.28 3.02-.01 4.37" clip-rule="evenodd"></path></svg>